# Blender 5.1.2
# www.blender.org
mtllib conveyer.mtl
o conveyer
v 0.050000 0.022500 -0.500000
v 0.050000 -0.022500 -0.500000
v -0.765000 0.022500 -0.500000
v -0.765000 -0.022500 -0.500000
v 0.790000 0.022500 -0.500000
v 0.790000 -0.022500 -0.500000
v 0.085000 0.022500 -0.500000
v 0.085000 -0.022500 -0.500000
v 0.825000 -0.022500 -0.500000
v 0.825000 -0.022500 -0.470000
v -0.800000 -0.022500 -0.470000
v -0.800000 -0.022500 -0.500000
v 0.825000 0.022500 -0.500000
v 0.825000 0.022500 -0.470000
v -0.800000 0.022500 -0.470000
v -0.800000 0.022500 -0.500000
v 0.790000 -0.165000 -0.500000
v 0.825000 -0.165000 -0.500000
v 0.825000 0.165000 -0.500000
v 0.790000 0.165000 -0.500000
v 0.050000 -0.165000 -0.500000
v 0.085000 -0.165000 -0.500000
v 0.085000 0.165000 -0.500000
v 0.050000 0.165000 -0.500000
v -0.800000 -0.165000 -0.500000
v -0.765000 -0.165000 -0.500000
v -0.765000 0.165000 -0.500000
v -0.800000 0.165000 -0.500000
v 0.790000 0.165000 -0.090000
v 0.825000 0.165000 -0.090000
v 0.085000 0.165000 -0.090000
v 0.050000 0.165000 -0.090000
v 0.790000 -0.165000 -0.090000
v 0.825000 -0.165000 -0.090000
v 0.085000 -0.165000 -0.090000
v 0.050000 -0.165000 -0.090000
v -0.765000 -0.165000 -0.090000
v -0.800000 -0.165000 -0.090000
v -0.765000 0.165000 -0.090000
v -0.800000 0.165000 -0.090000
v 0.790000 0.165000 -0.050000
v 0.790000 -0.165000 -0.050000
v 0.825000 0.165000 -0.050000
v 0.825000 -0.165000 -0.050000
v 0.050000 0.165000 -0.050000
v 0.050000 -0.165000 -0.050000
v 0.085000 0.165000 -0.050000
v 0.085000 -0.165000 -0.050000
v 0.790000 -0.165000 0.000000
v 0.825000 -0.165000 0.000000
v 0.050000 -0.165000 0.000000
v 0.085000 -0.165000 0.000000
v -0.765000 -0.165000 0.000000
v -0.765000 -0.165000 -0.050000
v -0.800000 -0.165000 0.000000
v -0.800000 -0.165000 -0.050000
v 0.790000 0.165000 0.000000
v 0.825000 0.165000 0.000000
v 0.050000 0.165000 0.000000
v 0.085000 0.165000 0.000000
v -0.765000 0.165000 -0.050000
v -0.765000 0.165000 0.000000
v -0.800000 0.165000 -0.050000
v -0.800000 0.165000 0.000000
v 0.050000 -0.165000 -0.600000
v 0.050000 -0.165000 -0.540000
v 0.085000 -0.165000 -0.600000
v 0.085000 -0.165000 -0.540000
v 0.790000 -0.165000 -0.600000
v 0.790000 -0.165000 -0.540000
v 0.825000 -0.165000 -0.600000
v 0.825000 -0.165000 -0.540000
v 0.790000 0.165000 -0.540000
v 0.825000 0.165000 -0.540000
v 0.050000 0.165000 -0.540000
v 0.085000 0.165000 -0.540000
v -0.765000 0.165000 -0.540000
v -0.765000 -0.165000 -0.540000
v -0.800000 0.165000 -0.540000
v -0.800000 -0.165000 -0.540000
v 0.790000 0.165843 -0.600000
v 0.825000 0.165843 -0.600000
v 0.050000 0.165843 -0.600000
v 0.085000 0.165843 -0.600000
v -0.765000 0.165843 -0.600000
v -0.800000 0.165843 -0.600000
v -0.765000 -0.165000 -0.600000
v -0.800000 -0.165000 -0.600000
v 0.050000 -0.200000 0.000000
v -0.765000 -0.200000 0.000000
v 0.050000 0.200000 0.000000
v -0.765000 0.200000 0.000000
v -0.925000 -0.200000 0.000000
v -0.925000 0.200000 0.000000
v -0.800000 -0.200000 0.000000
v -0.850000 -0.200000 0.000000
v -0.850000 -0.250000 0.000000
v -1.000000 -0.250000 0.000000
v -1.000000 -0.200000 0.000000
v -1.000000 0.200000 0.000000
v -1.000000 0.250000 0.000000
v -0.850000 0.250000 0.000000
v -0.850000 0.200000 0.000000
v -0.800000 0.200000 0.000000
v 0.925000 -0.200000 0.000000
v 0.825000 -0.200000 0.000000
v 0.085000 0.200000 0.000000
v 0.790000 0.200000 0.000000
v 0.825000 0.200000 0.000000
v 0.850000 0.200000 0.000000
v 0.925000 0.200000 0.000000
v 0.850000 0.250000 0.000000
v 1.000000 0.250000 0.000000
v 1.000000 0.200000 0.000000
v 0.790000 -0.200000 0.000000
v 0.085000 -0.200000 0.000000
v -0.765000 0.200000 -0.600000
v -0.800000 0.200000 -0.600000
v 0.790000 -0.200000 -0.600000
v 0.825000 -0.200000 -0.600000
v 0.085000 0.200000 -0.600000
v 0.050000 0.200000 -0.600000
v 0.050000 -0.200000 -0.600000
v 0.790000 0.200000 -0.600000
v -0.765000 -0.200000 -0.600000
v -0.800000 -0.200000 -0.600000
v 0.085000 -0.200000 -0.600000
v 0.825000 0.200000 -0.600000
v 0.998645 -0.260806 -0.100000
v 0.999915 -0.271431 0.100000
v 1.000000 -0.275000 -0.100000
v 0.999237 -0.285674 0.100000
v 0.998645 -0.289194 -0.100000
v 0.995875 -0.299530 0.100000
v 0.994628 -0.302875 -0.100000
v 0.989952 -0.312500 0.100000
v 0.988094 -0.315548 -0.100000
v 0.981681 -0.324115 0.100000
v 0.979280 -0.326756 -0.100000
v 0.971362 -0.333954 0.100000
v 0.968504 -0.336093 -0.100000
v 0.959367 -0.341663 0.100000
v 0.956156 -0.343222 -0.100000
v 0.946130 -0.346962 0.100000
v 0.942682 -0.347886 -0.100000
v 0.932129 -0.349660 0.100000
v 0.928569 -0.349915 -0.100000
v 0.917871 -0.349660 0.100000
v 0.914326 -0.349237 -0.100000
v 0.903870 -0.346962 0.100000
v 0.900470 -0.345875 -0.100000
v 0.890633 -0.341663 0.100000
v 0.887500 -0.339952 -0.100000
v 0.878638 -0.333954 0.100000
v 0.875885 -0.331681 -0.100000
v 0.868319 -0.324115 0.100000
v 0.866046 -0.321362 -0.100000
v 0.860048 -0.312500 0.100000
v 0.858337 -0.309367 -0.100000
v 0.854125 -0.299530 0.100000
v 0.853038 -0.296130 -0.100000
v 0.850763 -0.285674 0.100000
v 0.850340 -0.282129 -0.100000
v 0.850085 -0.271431 0.100000
v 0.850340 -0.267871 -0.100000
v 0.852114 -0.257318 0.100000
v 0.853038 -0.253870 -0.100000
v 0.856778 -0.243844 0.100000
v 0.858337 -0.240633 -0.100000
v 0.863907 -0.231496 0.100000
v 0.866046 -0.228638 -0.100000
v 0.873244 -0.220720 0.100000
v 0.875885 -0.218319 -0.100000
v 0.884452 -0.211906 0.100000
v 0.887500 -0.210048 -0.100000
v 0.897125 -0.205372 0.100000
v 0.900470 -0.204125 -0.100000
v 0.910806 -0.201355 0.100000
v 0.914326 -0.200763 -0.100000
v 0.925000 -0.200000 0.100000
v 0.997886 -0.257318 0.100000
v 0.994628 -0.247125 -0.100000
v 0.993222 -0.243844 0.100000
v 0.988094 -0.234452 -0.100000
v 0.986093 -0.231496 0.100000
v 0.979280 -0.223244 -0.100000
v 0.976756 -0.220720 0.100000
v 0.968504 -0.213907 -0.100000
v 0.965548 -0.211906 0.100000
v 0.956156 -0.206778 -0.100000
v 0.952875 -0.205372 0.100000
v 0.942682 -0.202114 -0.100000
v 0.939194 -0.201355 0.100000
v 0.928569 -0.200085 -0.100000
v -0.850000 -0.200000 0.100000
v -0.925000 -0.200000 0.100000
v -0.936126 -0.200000 0.098746
v -1.000000 -0.200000 0.100000
v -0.946694 -0.200000 0.095048
v -0.956175 -0.200000 0.089092
v -0.964092 -0.200000 0.081174
v -0.970048 -0.200000 0.071694
v -0.973746 -0.200000 0.061126
v -0.975000 -0.200000 0.050000
v -0.973746 -0.200000 0.038874
v -0.970048 -0.200000 0.028306
v -0.964092 -0.200000 0.018826
v -0.956175 -0.200000 0.010908
v -0.946694 -0.200000 0.004952
v -0.936126 -0.200000 0.001254
v -1.000000 -0.250000 0.100000
v -0.850000 -0.250000 0.100000
v -0.936126 0.200000 0.001254
v -0.946694 0.200000 0.004952
v -0.956175 0.200000 0.010908
v -0.964092 0.200000 0.018826
v -0.970048 0.200000 0.028306
v -0.973746 0.200000 0.038874
v -0.975000 0.200000 0.050000
v -1.000000 0.200000 0.100000
v -0.973746 0.200000 0.061126
v -0.970048 0.200000 0.071694
v -0.964092 0.200000 0.081174
v -0.956175 0.200000 0.089092
v -0.946694 0.200000 0.095048
v -0.936126 0.200000 0.098746
v -0.925000 0.200000 0.100000
v -0.850000 0.250000 0.100000
v -0.850000 0.200000 0.100000
v -1.000000 0.250000 0.100000
v 0.925000 0.200000 0.100000
v 0.936126 0.200000 0.098746
v 1.000000 0.200000 0.100000
v 0.946694 0.200000 0.095048
v 0.956175 0.200000 0.089092
v 0.964092 0.200000 0.081174
v 0.970048 0.200000 0.071694
v 0.973746 0.200000 0.061126
v 0.975000 0.200000 0.050000
v 0.973746 0.200000 0.038874
v 0.970048 0.200000 0.028306
v 0.964092 0.200000 0.018826
v 0.956175 0.200000 0.010908
v 0.946694 0.200000 0.004952
v 0.936126 0.200000 0.001254
v 0.850000 0.250000 0.100000
v 1.000000 0.250000 0.100000
v 0.850000 0.200000 0.100000
v -0.936126 0.000000 0.098746
v -0.946694 0.000000 0.095048
v -0.956175 0.000000 0.089092
v -0.964092 0.000000 0.081174
v -0.970048 0.000000 0.071694
v -0.973746 0.000000 0.061126
v -0.975000 0.000000 0.050000
v -0.973746 0.000000 0.038874
v -0.970048 0.000000 0.028306
v -0.964092 0.000000 0.018826
v -0.956175 0.000000 0.010908
v -0.946694 0.000000 0.004952
v -0.936126 0.000000 0.001254
v 0.936126 0.000000 0.001254
v 0.946694 0.000000 0.004952
v 0.956175 0.000000 0.010908
v 0.964092 0.000000 0.018826
v 0.970048 0.000000 0.028306
v 0.973746 0.000000 0.038874
v 0.975000 0.000000 0.050000
v 0.973746 0.000000 0.061126
v 0.970048 0.000000 0.071694
v 0.964092 0.000000 0.081174
v 0.956175 0.000000 0.089092
v 0.946694 0.000000 0.095048
v 0.936126 0.000000 0.098746
v 0.936126 -0.200000 0.098746
v 0.946694 -0.200000 0.095048
v 0.956175 -0.200000 0.089092
v 0.964092 -0.200000 0.081174
v 0.970048 -0.200000 0.071694
v 0.973746 -0.200000 0.061126
v 0.975000 -0.200000 0.050000
v 0.973746 -0.200000 0.038874
v 0.970048 -0.200000 0.028306
v 0.964092 -0.200000 0.018826
v 0.956175 -0.200000 0.010908
v 0.946694 -0.200000 0.004952
v 0.936126 -0.200000 0.001254
vn -0.0000 -0.0000 -1.0000
vn -0.0000 -1.0000 -0.0000
vn -0.0000 1.0000 -0.0000
vn -0.0000 -0.0000 1.0000
vn -0.0000 -0.9999 -0.0140
vn -1.0000 -0.0000 -0.0000
vn 1.0000 -0.0000 -0.0000
vn 0.9955 0.0951 -0.0013
vn 0.9989 -0.0476 0.0013
vn 0.9955 -0.0950 -0.0013
vn 0.9718 -0.2358 0.0013
vn 0.9595 -0.2817 -0.0013
vn 0.9096 -0.4154 0.0013
vn 0.8888 -0.4582 -0.0013
vn 0.8146 -0.5801 0.0013
vn 0.7861 -0.6182 -0.0013
vn 0.6901 -0.7237 0.0013
vn 0.6549 -0.7557 -0.0013
vn 0.5406 -0.8413 0.0013
vn 0.5000 -0.8660 -0.0013
vn 0.3717 -0.9284 0.0013
vn 0.3271 -0.9450 -0.0013
vn 0.1893 -0.9819 0.0013
vn 0.1423 -0.9898 -0.0013
vn -0.0000 -1.0000 0.0013
vn -0.0476 -0.9989 -0.0013
vn -0.1893 -0.9819 0.0013
vn -0.2358 -0.9718 -0.0013
vn -0.3717 -0.9284 0.0013
vn -0.4154 -0.9096 -0.0013
vn -0.5406 -0.8413 0.0013
vn -0.5801 -0.8146 -0.0013
vn -0.6901 -0.7237 0.0013
vn -0.7237 -0.6901 -0.0013
vn -0.8146 -0.5801 0.0013
vn -0.8413 -0.5406 -0.0013
vn -0.9096 -0.4154 0.0013
vn -0.9284 -0.3717 -0.0013
vn -0.9718 -0.2358 0.0013
vn -0.9819 -0.1893 -0.0013
vn -0.9989 -0.0476 0.0013
vn -1.0000 -0.0000 -0.0013
vn -0.9898 0.1423 0.0013
vn -0.9819 0.1892 -0.0013
vn -0.9450 0.3271 0.0013
vn -0.9284 0.3717 -0.0013
vn -0.8660 0.5000 0.0013
vn -0.8413 0.5406 -0.0013
vn -0.7558 0.6549 0.0013
vn -0.7237 0.6901 -0.0013
vn -0.6182 0.7861 0.0013
vn -0.5801 0.8146 -0.0013
vn -0.4582 0.8888 0.0013
vn -0.4154 0.9096 -0.0013
vn -0.2817 0.9595 0.0013
vn -0.2358 0.9718 -0.0013
vn -0.0951 0.9955 0.0013
vn -0.0713 0.9975 -0.0000
vn 0.9898 0.1423 0.0013
vn 0.9595 0.2817 -0.0013
vn 0.9450 0.3271 0.0013
vn 0.8888 0.4582 -0.0013
vn 0.8660 0.5000 0.0013
vn 0.7861 0.6182 -0.0013
vn 0.7557 0.6549 0.0013
vn 0.6549 0.7557 -0.0013
vn 0.6181 0.7861 0.0013
vn 0.5000 0.8660 -0.0013
vn 0.4582 0.8888 0.0013
vn 0.3271 0.9450 -0.0013
vn 0.2817 0.9595 0.0013
vn 0.1423 0.9898 -0.0013
vn 0.0951 0.9955 0.0013
vn 0.0238 0.9997 -0.0000
vn -0.0476 0.9989 -0.0025
vn -0.1120 -0.0000 0.9937
vn -0.3303 -0.0000 0.9439
vn -0.5320 -0.0000 0.8467
vn -0.7071 -0.0000 0.7071
vn -0.8467 -0.0000 0.5320
vn -0.9439 -0.0000 0.3303
vn -0.9937 -0.0000 0.1120
vn -0.9937 -0.0000 -0.1120
vn -0.9439 -0.0000 -0.3303
vn -0.8467 -0.0000 -0.5320
vn -0.7071 -0.0000 -0.7071
vn -0.5320 -0.0000 -0.8467
vn -0.3303 -0.0000 -0.9439
vn -0.1120 -0.0000 -0.9937
vn 0.1120 -0.0000 -0.9937
vn 0.3303 -0.0000 -0.9439
vn 0.5320 -0.0000 -0.8467
vn 0.7071 -0.0000 -0.7071
vn 0.8467 -0.0000 -0.5320
vn 0.9439 -0.0000 -0.3303
vn 0.9937 -0.0000 -0.1120
vn 0.9937 -0.0000 0.1120
vn 0.9439 -0.0000 0.3303
vn 0.8467 -0.0000 0.5320
vn 0.7071 -0.0000 0.7071
vn 0.5320 -0.0000 0.8467
vn 0.3303 -0.0000 0.9439
vn 0.1120 -0.0000 0.9937
s 0
f 1//1 2//1 3//1
f 3//1 2//1 4//1
f 5//1 6//1 7//1
f 7//1 6//1 8//1
f 9//2 10//2 6//2
f 6//2 10//2 8//2
f 8//2 10//2 2//2
f 2//2 10//2 11//2
f 2//2 11//2 4//2
f 4//2 11//2 12//2
f 13//3 5//3 14//3
f 14//3 5//3 7//3
f 14//3 7//3 1//3
f 14//3 1//3 15//3
f 15//3 1//3 3//3
f 15//3 3//3 16//3
f 10//4 14//4 11//4
f 11//4 14//4 15//4
f 6//4 17//4 9//4
f 9//4 17//4 18//4
f 13//4 19//4 5//4
f 5//4 19//4 20//4
f 2//4 21//4 8//4
f 8//4 21//4 22//4
f 7//4 23//4 1//4
f 1//4 23//4 24//4
f 12//4 25//4 4//4
f 4//4 25//4 26//4
f 3//4 27//4 16//4
f 16//4 27//4 28//4
f 29//2 20//2 30//2
f 30//2 20//2 19//2
f 23//2 31//2 24//2
f 24//2 31//2 32//2
f 17//3 33//3 18//3
f 18//3 33//3 34//3
f 35//3 22//3 36//3
f 36//3 22//3 21//3
f 37//3 26//3 38//3
f 38//3 26//3 25//3
f 33//1 29//1 34//1
f 34//1 29//1 30//1
f 31//1 35//1 32//1
f 32//1 35//1 36//1
f 39//1 37//1 40//1
f 40//1 37//1 38//1
f 27//2 39//2 28//2
f 28//2 39//2 40//2
f 41//4 42//4 43//4
f 43//4 42//4 44//4
f 45//4 46//4 47//4
f 47//4 46//4 48//4
f 42//3 49//3 44//3
f 44//3 49//3 50//3
f 46//3 51//3 48//3
f 48//3 51//3 52//3
f 53//3 54//3 55//3
f 55//3 54//3 56//3
f 57//2 41//2 58//2
f 58//2 41//2 43//2
f 59//2 45//2 60//2
f 60//2 45//2 47//2
f 61//2 62//2 63//2
f 63//2 62//2 64//2
f 54//4 61//4 56//4
f 56//4 61//4 63//4
f 65//3 66//3 67//3
f 67//3 66//3 68//3
f 69//3 70//3 71//3
f 71//3 70//3 72//3
f 70//1 73//1 72//1
f 72//1 73//1 74//1
f 66//1 75//1 68//1
f 68//1 75//1 76//1
f 77//1 78//1 79//1
f 79//1 78//1 80//1
f 73//5 81//5 74//5
f 74//5 81//5 82//5
f 75//5 83//5 76//5
f 76//5 83//5 84//5
f 85//5 77//5 86//5
f 86//5 77//5 79//5
f 78//3 87//3 80//3
f 80//3 87//3 88//3
f 89//1 90//1 51//1
f 51//1 90//1 53//1
f 51//1 53//1 59//1
f 59//1 53//1 62//1
f 59//1 62//1 91//1
f 91//1 62//1 92//1
f 53//1 55//1 62//1
f 62//1 55//1 64//1
f 64//1 55//1 93//1
f 64//1 93//1 94//1
f 95//1 96//1 55//1
f 55//1 96//1 93//1
f 96//1 97//1 93//1
f 93//1 97//1 98//1
f 93//1 98//1 99//1
f 100//1 101//1 94//1
f 94//1 101//1 102//1
f 94//1 102//1 103//1
f 104//1 64//1 103//1
f 103//1 64//1 94//1
f 59//1 60//1 51//1
f 51//1 60//1 52//1
f 52//1 60//1 57//1
f 52//1 57//1 49//1
f 49//1 57//1 58//1
f 49//1 58//1 50//1
f 50//1 58//1 105//1
f 50//1 105//1 106//1
f 107//1 108//1 60//1
f 60//1 108//1 57//1
f 109//1 110//1 58//1
f 58//1 110//1 111//1
f 58//1 111//1 105//1
f 110//1 112//1 111//1
f 111//1 112//1 113//1
f 111//1 113//1 114//1
f 115//1 116//1 49//1
f 49//1 116//1 52//1
f 85//1 86//1 117//1
f 117//1 86//1 118//1
f 69//1 71//1 119//1
f 119//1 71//1 120//1
f 84//1 83//1 121//1
f 121//1 83//1 122//1
f 36//6 46//6 32//6
f 32//6 46//6 45//6
f 32//6 45//6 91//6
f 91//6 45//6 59//6
f 46//6 36//6 89//6
f 89//6 36//6 21//6
f 89//6 21//6 123//6
f 123//6 21//6 66//6
f 123//6 66//6 65//6
f 21//6 2//6 66//6
f 66//6 2//6 1//6
f 66//6 1//6 75//6
f 75//6 1//6 24//6
f 75//6 24//6 122//6
f 122//6 24//6 91//6
f 91//6 24//6 32//6
f 51//6 46//6 89//6
f 122//6 83//6 75//6
f 49//6 42//6 115//6
f 115//6 42//6 33//6
f 115//6 33//6 17//6
f 33//6 42//6 29//6
f 29//6 42//6 41//6
f 29//6 41//6 108//6
f 108//6 41//6 57//6
f 29//6 108//6 20//6
f 20//6 108//6 124//6
f 20//6 124//6 73//6
f 73//6 124//6 81//6
f 20//6 73//6 5//6
f 5//6 73//6 70//6
f 5//6 70//6 6//6
f 6//6 70//6 17//6
f 17//6 70//6 119//6
f 17//6 119//6 115//6
f 70//6 69//6 119//6
f 53//7 90//7 54//7
f 54//7 90//7 37//7
f 54//7 37//7 61//7
f 61//7 37//7 39//7
f 61//7 39//7 92//7
f 92//7 39//7 27//7
f 92//7 27//7 117//7
f 117//7 27//7 77//7
f 117//7 77//7 85//7
f 37//7 90//7 26//7
f 26//7 90//7 125//7
f 26//7 125//7 78//7
f 78//7 125//7 87//7
f 77//7 3//7 78//7
f 78//7 3//7 4//7
f 78//7 4//7 26//7
f 92//7 62//7 61//7
f 27//7 3//7 77//7
f 64//6 104//6 63//6
f 63//6 104//6 40//6
f 63//6 40//6 56//6
f 56//6 40//6 38//6
f 56//6 38//6 95//6
f 95//6 38//6 25//6
f 95//6 25//6 126//6
f 126//6 25//6 80//6
f 126//6 80//6 88//6
f 40//6 104//6 28//6
f 28//6 104//6 118//6
f 28//6 118//6 79//6
f 79//6 118//6 86//6
f 28//6 79//6 16//6
f 16//6 79//6 80//6
f 16//6 80//6 12//6
f 12//6 80//6 25//6
f 95//6 55//6 56//6
f 12//6 11//6 16//6
f 16//6 11//6 15//6
f 88//1 87//1 126//1
f 126//1 87//1 125//1
f 65//1 67//1 123//1
f 123//1 67//1 127//1
f 52//7 116//7 48//7
f 48//7 116//7 35//7
f 48//7 35//7 47//7
f 47//7 35//7 31//7
f 47//7 31//7 107//7
f 107//7 31//7 23//7
f 107//7 23//7 121//7
f 121//7 23//7 76//7
f 121//7 76//7 84//7
f 35//7 116//7 22//7
f 22//7 116//7 127//7
f 22//7 127//7 68//7
f 68//7 127//7 67//7
f 76//7 7//7 68//7
f 68//7 7//7 8//7
f 68//7 8//7 22//7
f 107//7 60//7 47//7
f 23//7 7//7 76//7
f 82//1 81//1 128//1
f 128//1 81//1 124//1
f 50//7 106//7 44//7
f 44//7 106//7 34//7
f 44//7 34//7 43//7
f 43//7 34//7 30//7
f 43//7 30//7 109//7
f 109//7 30//7 19//7
f 109//7 19//7 128//7
f 128//7 19//7 74//7
f 128//7 74//7 82//7
f 34//7 106//7 18//7
f 18//7 106//7 120//7
f 18//7 120//7 72//7
f 72//7 120//7 71//7
f 74//7 13//7 72//7
f 72//7 13//7 9//7
f 72//7 9//7 18//7
f 109//7 58//7 43//7
f 19//7 13//7 74//7
f 13//7 14//7 9//7
f 9//7 14//7 10//7
f 129//8 130//8 131//8
f 131//9 130//9 132//9
f 131//10 132//10 133//10
f 133//11 132//11 134//11
f 133//12 134//12 135//12
f 135//13 134//13 136//13
f 135//14 136//14 137//14
f 137//15 136//15 138//15
f 137//16 138//16 139//16
f 139//17 138//17 140//17
f 139//18 140//18 141//18
f 141//19 140//19 142//19
f 141//20 142//20 143//20
f 143//21 142//21 144//21
f 143//22 144//22 145//22
f 145//23 144//23 146//23
f 145//24 146//24 147//24
f 147//25 146//25 148//25
f 147//26 148//26 149//26
f 149//27 148//27 150//27
f 149//28 150//28 151//28
f 151//29 150//29 152//29
f 151//30 152//30 153//30
f 153//31 152//31 154//31
f 153//32 154//32 155//32
f 155//33 154//33 156//33
f 155//34 156//34 157//34
f 157//35 156//35 158//35
f 157//36 158//36 159//36
f 159//37 158//37 160//37
f 159//38 160//38 161//38
f 161//39 160//39 162//39
f 161//40 162//40 163//40
f 163//41 162//41 164//41
f 163//42 164//42 165//42
f 165//43 164//43 166//43
f 165//44 166//44 167//44
f 167//45 166//45 168//45
f 167//46 168//46 169//46
f 169//47 168//47 170//47
f 169//48 170//48 171//48
f 171//49 170//49 172//49
f 171//50 172//50 173//50
f 173//51 172//51 174//51
f 173//52 174//52 175//52
f 175//53 174//53 176//53
f 175//54 176//54 177//54
f 177//55 176//55 178//55
f 177//56 178//56 179//56
f 179//57 178//57 180//57
f 179//58 180//58 105//58
f 130//59 129//59 181//59
f 181//60 129//60 182//60
f 181//61 182//61 183//61
f 183//62 182//62 184//62
f 183//63 184//63 185//63
f 185//64 184//64 186//64
f 185//65 186//65 187//65
f 187//66 186//66 188//66
f 187//67 188//67 189//67
f 189//68 188//68 190//68
f 189//69 190//69 191//69
f 191//70 190//70 192//70
f 191//71 192//71 193//71
f 193//72 192//72 194//72
f 193//73 194//73 180//73
f 180//74 194//74 105//74
f 105//75 194//75 179//75
f 180//4 178//4 193//4
f 193//4 178//4 191//4
f 191//4 178//4 176//4
f 191//4 176//4 189//4
f 189//4 176//4 174//4
f 189//4 174//4 187//4
f 187//4 174//4 172//4
f 187//4 172//4 185//4
f 185//4 172//4 170//4
f 185//4 170//4 183//4
f 183//4 170//4 168//4
f 183//4 168//4 181//4
f 181//4 168//4 166//4
f 181//4 166//4 130//4
f 130//4 166//4 164//4
f 130//4 164//4 132//4
f 132//4 164//4 162//4
f 132//4 162//4 134//4
f 134//4 162//4 160//4
f 134//4 160//4 136//4
f 136//4 160//4 158//4
f 136//4 158//4 138//4
f 138//4 158//4 156//4
f 138//4 156//4 140//4
f 140//4 156//4 154//4
f 140//4 154//4 142//4
f 142//4 154//4 152//4
f 142//4 152//4 144//4
f 144//4 152//4 150//4
f 144//4 150//4 146//4
f 146//4 150//4 148//4
f 129//1 131//1 173//1
f 173//1 131//1 133//1
f 173//1 133//1 171//1
f 171//1 133//1 135//1
f 171//1 135//1 137//1
f 137//1 139//1 171//1
f 171//1 139//1 141//1
f 171//1 141//1 143//1
f 143//1 145//1 171//1
f 171//1 145//1 147//1
f 171//1 147//1 149//1
f 149//1 151//1 171//1
f 171//1 151//1 153//1
f 171//1 153//1 155//1
f 155//1 157//1 171//1
f 171//1 157//1 169//1
f 169//1 157//1 159//1
f 169//1 159//1 167//1
f 167//1 159//1 161//1
f 167//1 161//1 165//1
f 165//1 161//1 163//1
f 175//1 188//1 173//1
f 173//1 188//1 186//1
f 173//1 186//1 184//1
f 188//1 175//1 190//1
f 190//1 175//1 177//1
f 190//1 177//1 192//1
f 192//1 177//1 179//1
f 192//1 179//1 194//1
f 184//1 182//1 173//1
f 173//1 182//1 129//1
f 105//2 180//2 106//2
f 106//2 180//2 115//2
f 106//2 115//2 120//2
f 120//2 115//2 119//2
f 195//2 89//2 180//2
f 180//2 89//2 116//2
f 180//2 116//2 115//2
f 96//2 95//2 195//2
f 195//2 95//2 90//2
f 195//2 90//2 89//2
f 126//2 125//2 95//2
f 95//2 125//2 90//2
f 123//2 127//2 89//2
f 89//2 127//2 116//2
f 196//3 197//3 198//3
f 198//3 197//3 199//3
f 198//3 199//3 200//3
f 200//3 201//3 198//3
f 198//3 201//3 202//3
f 198//3 202//3 203//3
f 203//3 204//3 198//3
f 198//3 204//3 99//3
f 99//3 204//3 205//3
f 99//3 205//3 206//3
f 206//3 207//3 99//3
f 99//3 207//3 208//3
f 99//3 208//3 209//3
f 209//3 210//3 99//3
f 99//3 210//3 93//3
f 211//6 198//6 98//6
f 98//6 198//6 99//6
f 212//2 211//2 97//2
f 97//2 211//2 98//2
f 195//7 212//7 96//7
f 96//7 212//7 97//7
f 94//2 213//2 100//2
f 100//2 213//2 214//2
f 100//2 214//2 215//2
f 215//2 216//2 100//2
f 100//2 216//2 217//2
f 100//2 217//2 218//2
f 218//2 219//2 100//2
f 100//2 219//2 220//2
f 220//2 219//2 221//2
f 220//2 221//2 222//2
f 222//2 223//2 220//2
f 220//2 223//2 224//2
f 220//2 224//2 225//2
f 225//2 226//2 220//2
f 220//2 226//2 227//2
f 228//7 229//7 102//7
f 102//7 229//7 103//7
f 230//3 228//3 101//3
f 101//3 228//3 102//3
f 220//6 230//6 100//6
f 100//6 230//6 101//6
f 231//2 232//2 233//2
f 233//2 232//2 234//2
f 233//2 234//2 235//2
f 235//2 236//2 233//2
f 233//2 236//2 237//2
f 233//2 237//2 238//2
f 238//2 239//2 233//2
f 233//2 239//2 114//2
f 114//2 239//2 240//2
f 114//2 240//2 241//2
f 241//2 242//2 114//2
f 114//2 242//2 243//2
f 114//2 243//2 244//2
f 244//2 245//2 114//2
f 114//2 245//2 111//2
f 246//3 247//3 112//3
f 112//3 247//3 113//3
f 248//6 246//6 110//6
f 110//6 246//6 112//6
f 247//7 233//7 113//7
f 113//7 233//7 114//7
f 196//76 227//76 249//76
f 249//76 227//76 226//76
f 249//77 226//77 250//77
f 250//77 226//77 225//77
f 250//78 225//78 251//78
f 251//78 225//78 224//78
f 251//79 224//79 252//79
f 252//79 224//79 223//79
f 252//80 223//80 253//80
f 253//80 223//80 222//80
f 253//81 222//81 254//81
f 254//81 222//81 221//81
f 254//82 221//82 255//82
f 255//82 221//82 219//82
f 255//83 219//83 256//83
f 256//83 219//83 218//83
f 256//84 218//84 257//84
f 257//84 218//84 217//84
f 257//85 217//85 258//85
f 258//85 217//85 216//85
f 258//86 216//86 259//86
f 259//86 216//86 215//86
f 259//87 215//87 260//87
f 260//87 215//87 214//87
f 260//88 214//88 261//88
f 261//88 214//88 213//88
f 261//89 213//89 94//89
f 94//89 93//89 261//89
f 261//89 93//89 210//89
f 261//88 210//88 260//88
f 260//88 210//88 209//88
f 260//87 209//87 259//87
f 259//87 209//87 208//87
f 259//86 208//86 258//86
f 258//86 208//86 207//86
f 258//85 207//85 257//85
f 257//85 207//85 206//85
f 257//84 206//84 256//84
f 256//84 206//84 205//84
f 256//83 205//83 255//83
f 255//83 205//83 204//83
f 255//82 204//82 254//82
f 254//82 204//82 203//82
f 254//81 203//81 253//81
f 253//81 203//81 202//81
f 253//80 202//80 252//80
f 252//80 202//80 201//80
f 252//79 201//79 251//79
f 251//79 201//79 200//79
f 251//78 200//78 250//78
f 250//78 200//78 199//78
f 250//77 199//77 249//77
f 249//77 199//77 197//77
f 249//76 197//76 196//76
f 105//90 111//90 262//90
f 262//90 111//90 245//90
f 262//91 245//91 263//91
f 263//91 245//91 244//91
f 263//92 244//92 264//92
f 264//92 244//92 243//92
f 264//93 243//93 265//93
f 265//93 243//93 242//93
f 265//94 242//94 266//94
f 266//94 242//94 241//94
f 266//95 241//95 267//95
f 267//95 241//95 240//95
f 267//96 240//96 268//96
f 268//96 240//96 239//96
f 268//97 239//97 269//97
f 269//97 239//97 238//97
f 269//98 238//98 270//98
f 270//98 238//98 237//98
f 270//99 237//99 271//99
f 271//99 237//99 236//99
f 271//100 236//100 272//100
f 272//100 236//100 235//100
f 272//101 235//101 273//101
f 273//101 235//101 234//101
f 273//102 234//102 274//102
f 274//102 234//102 232//102
f 274//103 232//103 231//103
f 231//103 180//103 274//103
f 274//103 180//103 275//103
f 274//102 275//102 273//102
f 273//102 275//102 276//102
f 273//101 276//101 272//101
f 272//101 276//101 277//101
f 272//100 277//100 271//100
f 271//100 277//100 278//100
f 271//99 278//99 270//99
f 270//99 278//99 279//99
f 270//98 279//98 269//98
f 269//98 279//98 280//98
f 269//97 280//97 268//97
f 268//97 280//97 281//97
f 268//96 281//96 267//96
f 267//96 281//96 282//96
f 267//95 282//95 266//95
f 266//95 282//95 283//95
f 266//94 283//94 265//94
f 265//94 283//94 284//94
f 265//93 284//93 264//93
f 264//93 284//93 285//93
f 264//92 285//92 263//92
f 263//92 285//92 286//92
f 263//91 286//91 262//91
f 262//91 286//91 287//91
f 262//90 287//90 105//90
f 180//2 105//2 275//2
f 275//2 105//2 287//2
f 275//2 287//2 286//2
f 275//2 286//2 276//2
f 276//2 286//2 285//2
f 276//2 285//2 277//2
f 277//2 285//2 284//2
f 277//2 284//2 278//2
f 278//2 284//2 283//2
f 278//2 283//2 279//2
f 279//2 283//2 282//2
f 279//2 282//2 280//2
f 280//2 282//2 281//2
f 196//4 195//4 227//4
f 227//4 195//4 229//4
f 227//4 229//4 228//4
f 198//4 211//4 196//4
f 196//4 211//4 212//4
f 196//4 212//4 195//4
f 229//4 195//4 248//4
f 248//4 195//4 180//4
f 248//4 180//4 231//4
f 233//4 247//4 231//4
f 231//4 247//4 246//4
f 231//4 246//4 248//4
f 228//4 230//4 227//4
f 227//4 230//4 220//4
f 103//3 229//3 104//3
f 104//3 229//3 92//3
f 104//3 92//3 118//3
f 118//3 92//3 117//3
f 92//3 229//3 91//3
f 91//3 229//3 248//3
f 91//3 248//3 107//3
f 107//3 248//3 108//3
f 108//3 248//3 109//3
f 108//3 109//3 124//3
f 124//3 109//3 128//3
f 248//3 110//3 109//3
f 121//3 122//3 107//3
f 107//3 122//3 91//3
